<svg
    xmlns="http://www.w3.org/2000/svg"
    viewBox="0 0 18 20"
    id="vector"
    width="18px"
    height="20px">
    <path
        id="path"
        d="M 6.133 19.617 C 6.793 19.617 7.415 19.515 8.075 19.369 C 11.018 17.94 13.731 16.264 16.204 14.364 C 16.732 11.62 16.916 8.983 16.916 6.213 C 15.847 5.724 14.537 5.498 12.997 5.496 L 8.576 5.491 C 7.036 5.489 5.72 5.734 4.652 6.198 L 4.652 17.983 C 4.652 19.008 5.191 19.617 6.133 19.617 L 6.133 19.617 M 12.313 12.666 L 8.605 3.221 C 7.369 2.018 5.887 1.077 4.184 0.362 C 3.522 0.216 2.899 0.12 2.237 0.12 C 1.301 0.12 0.762 0.723 0.762 1.742 L 0.762 11.268 C 0.762 12.482 1.008 13.472 1.474 14.214 L 6.282 14.222 L 12.312 14.23 C 12.779 13.893 12.841 13.443 12.313 12.666"
        fill="#000000"
        stroke-width="1"/>
</svg>
