<svg
    xmlns="http://www.w3.org/2000/svg"
    viewBox="0 0 18 20"
    id="vector"
    width="18px"
    height="20px">
    <path
        id="path"
        d="M 11.337 19.217 C 12.21 19.217 13.082 19.212 13.955 19.203 C 15.096 19.121 15.75 18.517 15.892 17.436 C 15.922 12.263 15.933 7.097 15.933 1.924 C 15.872 0.891 15.299 0.414 14.238 0.414 L 11.477 0.414 C 10.417 0.414 9.832 0.936 9.771 1.923 L 9.771 17.644 C 9.771 18.674 10.311 19.217 11.337 19.217 L 11.337 19.217 M 7.65 17.338 L 7.436 1.752 C 7.365 0.678 6.772 0.16 5.713 0.119 C 4.835 0.11 3.96 0.105 3.082 0.105 C 2.068 0.105 1.529 0.648 1.529 1.667 L 1.529 17.258 C 1.529 18.299 2.051 18.864 3.039 18.907 L 3.315 18.907 L 6.18 18.908 C 7.168 18.888 7.68 18.354 7.65 17.338"
        fill="#000000"
        stroke-width="1"/>
</svg>
