<svg
    xmlns="http://www.w3.org/2000/svg"
    viewBox="0 0 18 20"
    id="vector"
    width="18px"
    height="20px">
    <path
        id="path"
        d="M 1.816 19.948 C 2.298 19.948 2.712 19.767 3.195 19.506 C 7.634 16.96 12.057 14.395 16.462 11.815 C 17.403 11.085 17.731 10.548 17.731 9.773 C 15.827 9.735 13.905 9.716 11.968 9.713 L 6.168 9.704 C 4.23 9.701 2.308 9.715 0.404 9.746 L 0.404 18.264 C 0.404 19.285 0.943 19.948 1.816 19.948 L 1.816 19.948 M 16.183 8.789 L 9.575 4.44 C 7.372 3.13 5.152 1.839 2.916 0.563 C 2.433 0.303 2.019 0.133 1.536 0.133 C 0.664 0.133 0.125 0.785 0.125 1.805 L 0.125 6.299 C 0.125 7.656 0.143 8.997 0.176 10.321 L 8.745 10.334 L 17.401 10.348 C 17.434 9.747 17.124 9.367 16.183 8.789"
        fill="#000000"
        stroke-width="1"/>
</svg>
