<svg
    xmlns="http://www.w3.org/2000/svg"
    viewBox="0 0 18 20"
    id="vector"
    width="18px"
    height="20px">
    <path
        id="path"
        d="M 9.997 19.32 C 10.816 19.32 11.623 19.29 12.442 19.246 C 14.047 18.817 15.23 17.937 15.972 16.645 C 16.131 12.098 16.186 7.583 16.186 3.028 C 15.865 2.135 15.103 1.723 13.919 1.722 L 10.73 1.72 C 9.546 1.72 8.774 2.171 8.453 3.023 L 8.453 17.731 C 8.453 18.76 8.993 19.32 9.997 19.32 L 9.997 19.32 M 8.85 16.135 L 7.737 2.13 C 7.366 1.023 6.544 0.396 5.319 0.181 C 4.497 0.138 3.687 0.109 2.865 0.109 C 1.871 0.109 1.332 0.667 1.332 1.686 L 1.332 15.716 C 1.332 16.802 1.783 17.476 2.636 17.699 L 4.079 17.701 L 7.758 17.704 C 8.612 17.602 9.008 17.09 8.85 16.135"
        fill="#000000"
        stroke-width="1"/>
</svg>
