<svg
    xmlns="http://www.w3.org/2000/svg"
    viewBox="0 0 18 20"
    id="vector"
    width="18px"
    height="20px">
    <path
        id="path"
        d="M 8.554 19.431 C 9.313 19.431 10.051 19.374 10.81 19.292 C 12.915 18.489 14.67 17.312 16.059 15.793 C 16.355 11.919 16.458 8.106 16.458 4.218 C 15.858 3.476 14.891 3.133 13.575 3.132 L 9.925 3.129 C 8.609 3.128 7.633 3.502 7.033 4.209 L 7.033 17.825 C 7.033 18.853 7.573 19.431 8.554 19.431 L 8.554 19.431 M 10.144 14.839 L 8.061 2.537 C 7.367 1.394 6.299 0.651 4.895 0.249 C 4.133 0.167 3.393 0.113 2.631 0.113 C 1.658 0.113 1.119 0.688 1.119 1.707 L 1.119 14.055 C 1.119 15.189 1.494 15.98 2.202 16.397 L 4.902 16.402 L 9.46 16.406 C 10.169 16.217 10.44 15.728 10.144 14.839"
        fill="#000000"
        stroke-width="1"/>
</svg>
