<svg
    xmlns="http://www.w3.org/2000/svg"
    viewBox="0 0 18 20"
    id="vector"
    width="18px"
    height="20px">
    <path
        id="path"
        d="M 1.482 19.974 C 1.951 19.974 2.349 19.786 2.818 19.517 C 7.373 16.884 11.927 14.251 16.482 11.618 C 17.455 11.044 17.794 10.669 17.794 10.048 C 15.825 10.045 13.857 10.042 11.888 10.039 L 5.982 10.029 C 4.013 10.026 2.045 10.023 0.076 10.02 L 0.076 18.286 C 0.076 19.306 0.615 19.974 1.482 19.974 L 1.482 19.974 M 16.482 8.489 L 9.65 4.534 C 7.373 3.216 5.095 1.897 2.818 0.579 C 2.349 0.31 1.951 0.134 1.482 0.134 C 0.615 0.134 0.076 0.79 0.076 1.81 L 0.076 5.915 C 0.076 7.283 0.076 8.651 0.076 10.02 L 8.935 10.034 L 17.794 10.048 C 17.794 9.427 17.455 9.052 16.482 8.489"
        fill="#000000"
        stroke-width="1"/>
</svg>
