<svg
    xmlns="http://www.w3.org/2000/svg"
    viewBox="0 0 18 20"
    id="vector"
    width="18px"
    height="20px">
    <path
        id="path"
        d="M 3.264 19.837 C 3.806 19.837 4.29 19.682 4.832 19.46 C 8.769 17.288 12.618 15.022 16.375 12.67 C 17.178 11.264 17.458 10.023 17.458 8.579 C 15.834 8.39 14.117 8.301 12.313 8.298 L 6.976 8.291 C 5.171 8.288 3.453 8.38 1.829 8.556 L 1.829 18.17 C 1.829 19.192 2.368 19.837 3.264 19.837 L 3.264 19.837 M 14.885 10.089 L 9.25 4.031 C 7.371 2.757 5.398 1.583 3.341 0.496 C 2.799 0.274 2.314 0.129 1.771 0.129 C 0.878 0.129 0.339 0.764 0.339 1.784 L 0.339 7.966 C 0.339 9.275 0.433 10.498 0.612 11.627 L 7.919 11.638 L 15.694 11.65 C 15.873 11.138 15.688 10.734 14.885 10.089"
        fill="#000000"
        stroke-width="1"/>
</svg>
