<svg
    xmlns="http://www.w3.org/2000/svg"
    viewBox="0 0 18 20"
    id="vector"
    width="18px"
    height="20px">
    <path
        id="path"
        d="M 11.654 19.193 C 12.541 19.193 13.427 19.193 14.314 19.193 C 15.345 19.193 15.873 18.654 15.873 17.623 C 15.873 12.303 15.873 6.982 15.873 1.662 C 15.873 0.596 15.345 0.104 14.314 0.104 L 11.654 0.104 C 10.623 0.104 10.083 0.643 10.083 1.662 L 10.083 17.623 C 10.083 18.654 10.623 19.193 11.654 19.193 L 11.654 19.193 M 7.365 17.623 L 7.365 1.662 C 7.365 0.596 6.826 0.104 5.806 0.104 C 4.915 0.104 4.025 0.104 3.134 0.104 C 2.115 0.104 1.576 0.643 1.576 1.662 L 1.576 17.623 C 1.576 18.654 2.115 19.193 3.134 19.193 L 3.134 19.193 L 5.806 19.193 C 6.826 19.193 7.365 18.654 7.365 17.623"
        fill="#000000"
        stroke-width="1"/>
</svg>
