<svg
    xmlns="http://www.w3.org/2000/svg"
    viewBox="0 0 18 20"
    id="vector"
    width="18px"
    height="20px">
    <path
        id="path"
        d="M 10.848 19.255 C 11.702 19.255 12.55 19.24 13.403 19.219 C 14.713 19.01 15.56 18.305 15.921 17.147 C 15.998 12.203 16.025 7.274 16.025 2.326 C 15.869 1.345 15.227 0.891 14.122 0.891 L 11.205 0.89 C 10.099 0.89 9.446 1.386 9.29 2.324 L 9.29 17.676 C 9.29 18.706 9.83 19.255 10.848 19.255 L 10.848 19.255 M 8.087 16.899 L 7.546 1.89 C 7.366 0.804 6.689 0.246 5.569 0.142 C 4.712 0.12 3.86 0.106 3.003 0.106 C 1.996 0.106 1.457 0.655 1.457 1.674 L 1.457 16.695 C 1.457 17.753 1.953 18.358 2.892 18.466 L 3.594 18.467 L 6.756 18.468 C 7.695 18.419 8.164 17.893 8.087 16.899"
        fill="#000000"
        stroke-width="1"/>
</svg>
