<svg width="16" height="20" viewBox="0 0 16 20" fill="none" xmlns="http://www.w3.org/2000/svg">
<path d="M0.5 9.5L2 8V9.5V11L0.5 9.5Z" fill="#D4D4D4"/>
<path d="M0.5 9.5H7.5M0.5 9.5L2 8V11L0.5 9.5Z" stroke="#D4D4D4" stroke-linecap="round" stroke-linejoin="round"/>
<path fill-rule="evenodd" clip-rule="evenodd" d="M0 19.0762H7.66699C9.48633 19.0762 10.3916 18.1621 10.3916 16.3252V2.99219C10.3916 1.16406 9.48633 0.232422 7.66699 0.232422H0V1.64746H7.59668C8.51074 1.64746 8.97656 2.13965 8.97656 3.01855V16.2988C8.97656 17.1777 8.51074 17.6611 7.59668 17.6611H0V19.0762Z" fill="#D4D4D4"/>
<path fill-rule="evenodd" clip-rule="evenodd" d="M12.667 19.0762H8.66699C9.97241 19.0762 10.8072 18.6056 11.1747 17.6611H12.5967C13.5107 17.6611 13.9766 17.1777 13.9766 16.2988V3.01855C13.9766 2.13965 13.5107 1.64746 12.5967 1.64746H11.1704C10.8008 0.708381 9.96738 0.232422 8.66699 0.232422H12.667C14.4863 0.232422 15.3916 1.16406 15.3916 2.99219V16.3252C15.3916 18.1621 14.4863 19.0762 12.667 19.0762Z" fill="#D4D4D4"/>
</svg>
